<?xml version="1.0" encoding="utf-8"?>
<!-- Generator: Adobe Illustrator 19.0.0, SVG Export Plug-In . SVG Version: 6.00 Build 0)  -->
<!DOCTYPE svg PUBLIC "-//W3C//DTD SVG 1.1//EN" "http://www.w3.org/Graphics/SVG/1.1/DTD/svg11.dtd">
<svg version="1.1" xmlns="http://www.w3.org/2000/svg" xmlns:xlink="http://www.w3.org/1999/xlink" x="0px" y="0px"
	 viewBox="0 0 120.5 40" enable-background="new 0 0 120.5 40" xml:space="preserve">
<g id="Layer_3" display="none">
	<rect id="XMLID_15_" x="0" y="0" display="inline" width="120.5" height="40"/>
</g>
<g id="Vector" display="none">
	
		<text id="XMLID_1_" transform="matrix(1 0 0 1 0.9995 37.5303)" display="inline" fill="#FFFFFF" font-family="'AktivGrotesk-Light'" font-size="47.2304px">xPDO</text>
</g>
<g id="Outline">
	<g id="XMLID_17_">
		<path id="XMLID_18_" fill="#FFFFFF" d="M10.6,24.6L2.4,13.2h3.2l6.7,9.5l6.8-9.5h3l-8,11.5l9.1,12.8h-3.2l-7.7-10.9L4.7,37.5H1.6
			L10.6,24.6z"/>
		<path id="XMLID_20_" fill="#FFFFFF" d="M27.4,3.8h10.9c2.5,0,4.5,0.3,6,0.8c1.6,0.5,2.8,1.2,3.7,2.1c0.9,0.9,1.5,1.9,1.9,3.1
			c0.3,1.2,0.5,2.4,0.5,3.8c0,1.4-0.2,2.7-0.5,4c-0.4,1.3-1,2.4-1.9,3.3c-0.9,0.9-2.2,1.7-3.7,2.2c-1.6,0.6-3.6,0.8-6,0.8h-7.9v13.6
			h-2.8V3.8z M38.3,21.3c1.9,0,3.4-0.2,4.6-0.5c1.2-0.4,2.1-0.9,2.8-1.5c0.7-0.7,1.2-1.5,1.4-2.4c0.3-0.9,0.4-2,0.4-3.2
			c0-1.3-0.1-2.3-0.4-3.2c-0.3-0.9-0.8-1.7-1.5-2.3c-0.7-0.6-1.7-1.1-2.9-1.4c-1.2-0.3-2.7-0.4-4.5-0.4h-7.9v15H38.3z"/>
		<path id="XMLID_23_" fill="#FFFFFF" d="M56.1,3.8h11.4c2.4,0,4.5,0.3,6.4,1c1.9,0.7,3.5,1.7,4.8,3.1c1.3,1.4,2.3,3.1,3,5.2
			c0.7,2.1,1.1,4.5,1.1,7.4c0,2.9-0.4,5.4-1.1,7.5c-0.8,2.1-1.8,3.9-3.3,5.3s-3.1,2.5-5.1,3.2c-2,0.7-4.3,1.1-6.8,1.1H56.1V3.8z
			 M66.6,35c4.5,0,7.8-1.2,9.9-3.7c2.1-2.5,3.2-6.1,3.2-10.7c0-4.6-1-8.1-3-10.5c-2-2.5-5.1-3.7-9.3-3.7H59V35H66.6z"/>
		<path id="XMLID_26_" fill="#FFFFFF" d="M103.3,38.4c-2.2,0-4.2-0.4-6.1-1.1c-1.9-0.7-3.5-1.8-4.8-3.3c-1.4-1.5-2.4-3.3-3.2-5.5
			S88,23.7,88,20.8c0-2.9,0.4-5.5,1.2-7.7C90,10.9,91,9,92.4,7.5c1.4-1.5,3-2.6,4.8-3.4c1.9-0.8,3.9-1.2,6-1.2s4.2,0.4,6,1.1
			c1.9,0.7,3.5,1.9,4.8,3.3c1.3,1.5,2.4,3.3,3.2,5.5c0.8,2.2,1.2,4.7,1.2,7.6c0,2.9-0.4,5.5-1.1,7.7c-0.8,2.2-1.8,4.1-3.1,5.6
			c-1.3,1.5-2.9,2.6-4.8,3.4C107.5,38,105.5,38.4,103.3,38.4z M103.3,35.8c2,0,3.7-0.4,5.2-1.1c1.5-0.7,2.8-1.8,3.8-3.1
			c1-1.3,1.8-2.9,2.3-4.8c0.5-1.9,0.8-3.9,0.8-6.1c0-2.2-0.3-4.3-0.8-6.1s-1.3-3.5-2.3-4.8c-1-1.3-2.3-2.4-3.8-3.1
			c-1.5-0.7-3.2-1.1-5.2-1.1c-2,0-3.8,0.4-5.4,1.1c-1.5,0.7-2.8,1.8-3.8,3.1c-1,1.3-1.8,2.9-2.3,4.8s-0.8,3.9-0.8,6.1
			c0,2.2,0.3,4.3,0.8,6.1c0.5,1.9,1.3,3.5,2.3,4.8c1,1.3,2.3,2.4,3.8,3.1C99.5,35.5,101.3,35.8,103.3,35.8z"/>
	</g>
</g>
</svg>
